HIERARCHY
ROOT Hips
{
	OFFSET -3.958830 18.904000 13.208200
	CHANNELS 6 Xposition Yposition Zposition Zrotation Yrotation Xrotation 
	JOINT LHipJoint
	{
		OFFSET 0.000000 0.000000 0.000000
		CHANNELS 3 Zrotation Yrotation Xrotation
		JOINT LeftUpLeg
		{
			OFFSET 1.800000 -1.400000 0.085000
			CHANNELS 3 Zrotation Yrotation Xrotation
			JOINT LeftLeg
			{
				OFFSET 2.215000 -6.000000 0.000000
				CHANNELS 3 Zrotation Yrotation Xrotation
				JOINT LeftFoot
				{
					OFFSET 2.500000 -6.900000 0.000000
					CHANNELS 3 Zrotation Yrotation Xrotation
					JOINT LeftToeBase
					{
						OFFSET 0.200000 -0.500000 1.950000
						CHANNELS 3 Zrotation Yrotation Xrotation
						End Site
						{
							OFFSET 0.000000 0.000000 0.000000
						}
					}
				}
			}
		}
	}
	JOINT RHipJoint
	{
		OFFSET 0.000000 0.000000 0.000000
		CHANNELS 3 Zrotation Yrotation Xrotation
		JOINT RightUpLeg
		{
			OFFSET -1.800000 -1.400000 0.085000
			CHANNELS 3 Zrotation Yrotation Xrotation
			JOINT RightLeg
			{
				OFFSET -2.215000 -6.000000 0.000000
				CHANNELS 3 Zrotation Yrotation Xrotation
				JOINT RightFoot
				{
					OFFSET -2.500000 -6.900000 0.000000
					CHANNELS 3 Zrotation Yrotation Xrotation
					JOINT RightToeBase
					{
						OFFSET -0.200000 -0.500000 1.950000
						CHANNELS 3 Zrotation Yrotation Xrotation
						End Site
						{
							OFFSET 0.000000 0.000000 0.000000
						}
					}
				}
			}
		}
	}
	JOINT LowerBack
	{
		OFFSET 0.000000 0.000000 0.000000
		CHANNELS 3 Zrotation Yrotation Xrotation
		JOINT Spine
		{
			OFFSET -0.087000 1.940000 -0.288900
			CHANNELS 3 Zrotation Yrotation Xrotation
			JOINT Spine1
			{
				OFFSET 0.000000 1.950000 0.060000
				CHANNELS 3 Zrotation Yrotation Xrotation
				JOINT Neck
				{
					OFFSET 0.000000 0.000000 0.000000
					CHANNELS 3 Zrotation Yrotation Xrotation
					JOINT Neck1
					{
						OFFSET 0.000000 1.600000 0.340000
						CHANNELS 3 Zrotation Yrotation Xrotation
						JOINT Head
						{
							OFFSET 0.000000 1.667000 -0.240000
							CHANNELS 3 Zrotation Yrotation Xrotation
							End Site
							{
								OFFSET 0.000000 0.000000 0.000000
							}
						}
					}
				}
				JOINT LeftShoulder
				{
					OFFSET 0.000000 0.000000 0.000000
					CHANNELS 3 Zrotation Yrotation Xrotation
					JOINT LeftArm
					{
						OFFSET 2.700000 1.550000 -0.730000
						CHANNELS 3 Zrotation Yrotation Xrotation
						JOINT LeftForeArm
						{
							OFFSET 5.450000 0.000000 0.000000
							CHANNELS 3 Zrotation Yrotation Xrotation
							JOINT LeftHand
							{
								OFFSET 3.450000 0.000000 0.000000
								CHANNELS 3 Zrotation Yrotation Xrotation
								JOINT LeftHandIndex1
								{
									OFFSET 0.750000 0.000000 0.000000
									CHANNELS 3 Zrotation Yrotation Xrotation
									End Site
									{
										OFFSET 0.000000 0.000000 0.000000
									}
								}
							}
						}
					}
				}
				JOINT RightShoulder
				{
					OFFSET 0.000000 0.000000 0.000000
					CHANNELS 3 Zrotation Yrotation Xrotation
					JOINT RightArm
					{
						OFFSET -2.700000 1.550000 -0.730000
						CHANNELS 3 Zrotation Yrotation Xrotation
						JOINT RightForeArm
						{
							OFFSET -5.450000 0.000000 0.000000
							CHANNELS 3 Zrotation Yrotation Xrotation
							JOINT RightHand
							{
								OFFSET -3.450000 0.000000 0.000000
								CHANNELS 3 Zrotation Yrotation Xrotation
								JOINT RightHandIndex1
								{
									OFFSET -0.750000 0.000000 0.000000
									CHANNELS 3 Zrotation Yrotation Xrotation
									End Site
									{
										OFFSET 0.000000 0.000000 0.000000
									}
								}
							}
						}
					}
				}
			}
		}
	}
}
MOTION
Frames: 8
Frame Time: 0.016667
-0.982170 16.970870 -8.944890 -3.210745 -1.436190 -2.565099 -15.553030 14.019241 2.611554 13.680934 -0.633268 -5.458022 -4.878710 5.894711 11.732513 -0.307968 4.654067 2.982360 0.418510 0.073750 0.499710 17.757888 -10.216221 3.278388 -23.560334 1.410013 -27.683271 15.886046 -12.650203 31.851778 -0.706753 -6.122536 1.976325 -0.020070 -0.004320 0.346040 -2.227999 -3.458648 -8.016776 -0.767567 -0.687543 15.041275 6.950574 -1.470600 4.923345 1.620799 2.553056 -11.047899 1.587034 -0.045062 45.489554 -3.163000 3.606740 -14.776550 -19.334245 -13.641052 4.996720 -39.880077 -11.209884 -2.068451 13.385603 -19.207607 -3.603294 -3.628321 2.831062 0.719100 -0.060920 0.275870 0.094630 17.659565 12.917320 6.782997 47.496568 5.109845 -13.170148 -8.526874 44.046015 -5.061211 1.984293 -1.225695 -0.097240 0.099790 -0.051880 -0.249910 
-1.005440 16.958630 -8.928060 -3.216568 -1.521338 -2.491370 -15.526190 14.040808 2.615674 13.862825 -0.647792 -5.584608 -4.857982 5.966266 12.126639 -0.311788 4.690923 2.971119 0.404640 0.052990 0.487770 17.767341 -10.330143 3.181497 -22.972573 1.298358 -27.172031 14.957126 -11.856119 30.458692 -0.633611 -5.789555 2.092485 -0.026930 0.011280 0.348670 -2.278618 -3.337325 -7.943759 -0.707861 -0.799170 14.667747 6.522430 -1.544523 5.026456 1.651142 2.637435 -11.000128 1.880291 -0.054537 44.987376 -3.121820 3.626610 -14.218620 -18.492111 -13.139398 4.952019 -39.895741 -10.918147 -2.127928 14.107505 -18.977896 -3.678868 -3.646576 2.836982 0.710610 -0.047930 0.259610 0.093770 16.702564 12.314978 6.685528 48.070143 5.270373 -13.072207 -7.393031 44.837118 -4.779944 1.981564 -1.237884 -0.104320 0.095870 -0.042620 -0.249730 
-1.044430 16.933360 -8.883610 -2.920065 -1.626405 -1.963896 -15.474191 14.071527 2.605493 13.539875 -0.664465 -5.870172 -4.474756 5.923882 12.534084 -0.319760 4.676553 3.007651 0.349230 -0.006940 0.425170 17.796570 -10.523467 3.024343 -22.077829 0.987448 -26.334708 13.294693 -10.393766 27.423360 -0.476177 -5.168909 2.335596 -0.042580 0.087840 0.329380 -2.394333 -3.127975 -7.782910 -0.674706 -1.165466 13.380437 5.670080 -1.836069 4.961061 1.520514 2.309928 -10.715596 1.505561 0.507928 43.230297 -2.553830 3.620850 -12.001000 -17.022535 -11.592125 4.723601 -39.977959 -10.014269 -2.234410 14.948708 -18.841668 -3.712173 -3.697540 2.837295 0.663360 0.001330 0.190840 0.106210 15.397694 10.822707 6.377588 48.367862 5.180919 -12.622299 -3.948678 46.449539 -3.652095 1.982661 -1.276928 -0.138390 0.113770 -0.017180 -0.231940 
-1.093510 16.900920 -8.835800 -2.333805 -1.917611 -1.566891 -15.441440 14.084805 2.621692 13.318891 -0.616268 -5.822530 -4.589847 5.971203 12.555384 -0.313453 4.730301 3.017094 0.296990 -0.072800 0.360170 17.816772 -10.663025 2.869790 -21.434714 0.728459 -25.478407 11.506992 -9.063660 24.589085 -0.345141 -4.625442 2.548466 -0.063640 0.163540 0.330560 -2.466467 -2.985928 -7.641018 -0.977227 -1.411939 12.185017 4.747605 -2.045483 5.015333 1.410863 1.741080 -10.492896 0.639447 1.229806 41.550652 -1.943690 3.465560 -9.988850 -15.841111 -9.997690 4.462842 -39.213386 -8.743574 -2.432459 15.921164 -18.761112 -3.729263 -3.751646 2.855274 0.621770 0.049130 0.126600 0.116800 14.348322 9.531258 6.286983 47.879431 4.605369 -12.609098 1.130299 51.156456 -1.947885 1.962351 -1.362274 -0.162610 0.118650 0.017260 -0.212840 
-1.147660 16.861690 -8.787920 -1.893497 -1.797040 -1.059586 -15.408057 14.091984 2.625698 13.457184 -0.588608 -6.109493 -4.856617 6.102785 12.798424 -0.280944 4.793876 3.025677 0.267000 -0.094290 0.288850 17.843529 -10.770350 2.719280 -20.730949 0.535961 -24.381133 10.011937 -8.094550 22.422809 -0.256442 -4.257766 2.711430 -0.065200 0.249070 0.331270 -2.558090 -2.896449 -7.488594 -0.899545 -1.767363 10.910477 3.761735 -2.347340 5.132366 1.232850 0.919436 -10.074789 -0.680698 2.121171 39.339352 -0.886520 3.083990 -8.106530 -14.914226 -8.060706 3.961957 -38.101492 -7.795155 -2.405354 16.104204 -18.338982 -3.523824 -3.804740 2.887852 0.554910 0.099540 0.066120 0.151580 13.674566 8.034445 6.142612 46.389020 3.682107 -12.193151 8.519249 57.461578 1.290070 1.953449 -1.517036 -0.168690 0.130200 0.029500 -0.169110 
-1.188050 16.825940 -8.737220 -1.525829 -1.496271 -0.575995 -15.343233 14.029362 2.632432 13.632667 -0.536528 -6.285349 -5.463537 6.264224 12.701203 -0.231134 4.857735 3.032060 0.235040 -0.112520 0.216130 17.910250 -10.842122 2.634157 -20.466408 0.396544 -23.424728 9.428235 -7.665436 21.023503 -0.201488 -4.125927 2.792768 -0.071140 0.325000 0.334770 -2.759271 -2.732024 -7.388892 0.382080 -2.255023 9.807865 1.730715 -2.672907 5.493965 1.302845 -0.199972 -9.939269 -2.499144 2.762147 36.977619 -0.529360 2.507490 -6.363330 -14.268008 -6.576896 3.572858 -36.919904 -6.516205 -2.583454 17.047468 -17.573042 -3.374926 -3.858566 2.922089 0.479910 0.149210 0.010520 0.182570 12.642267 7.193485 6.470162 45.493076 2.550790 -11.578987 17.514206 64.691663 6.220216 1.957239 -1.702874 -0.162720 0.135280 0.040610 -0.121400 
-1.214600 16.803580 -8.688400 -1.406775 -1.422986 -0.241271 -15.269118 13.986006 2.621842 13.928198 -0.431501 -6.411158 -5.964396 6.506060 13.025683 -0.189357 4.950812 3.022381 0.199420 -0.133590 0.144280 17.982430 -10.868877 2.613154 -20.431233 0.354957 -22.450477 9.725302 -7.538557 19.783226 -0.164220 -4.100510 2.844371 -0.077700 0.389590 0.320780 -2.980501 -2.626681 -7.340098 2.486299 -2.677313 9.255691 -0.434571 -2.872452 5.706875 1.563760 -1.723367 -10.000688 -5.029268 3.555504 34.770610 -0.424330 2.057110 -5.191260 -14.662118 -5.370151 3.208577 -36.077171 -4.548414 -3.190284 19.656008 -17.435734 -3.552864 -3.891152 2.937278 0.423840 0.186130 -0.041180 0.207440 12.255643 6.971167 7.163152 43.308050 0.800948 -10.178217 31.880422 73.529737 16.504821 2.004245 -1.879702 -0.168600 0.154950 0.056450 -0.084150 
-1.237700 16.802310 -8.653860 -1.256607 -1.206937 -0.253038 -15.197009 13.982267 2.655127 14.328246 -0.345503 -6.395736 -6.578339 6.765547 13.260073 -0.160716 5.076572 3.000795 0.180100 -0.161780 0.114850 18.038893 -10.917792 2.571090 -20.027893 0.362219 -21.488541 9.409202 -7.271494 18.921923 -0.147125 -4.006507 2.895996 -0.088680 0.428250 0.311460 -3.176448 -2.570655 -7.344213 4.546139 -3.105655 9.594405 -2.519437 -3.030573 5.553073 1.860689 -3.190615 -10.213293 -7.573166 4.027989 33.285957 -0.162700 1.341680 -4.976120 -15.815079 -4.514603 2.836404 -34.633950 -2.315308 -3.767672 22.137107 -17.166717 -3.685668 -3.895349 2.936718 0.417410 0.188540 -0.063060 0.223280 12.589585 7.052999 8.047770 39.883808 -0.870321 -7.220560 53.094457 81.086786 34.248089 2.262679 -1.768667 -0.184210 0.179820 0.065740 -0.064510 
